#!OML:ASF F:\twosubjects\two\Thursday\Session 1\justin.ASF
:FULLY-SPECIFIED
:DEGREES
373
root 7.07843 9.52022 -18.0215 -24.7492 -0.592295 1.21332
lowerback 36.4569 2.73647 -2.66495
upperback 12.4216 2.60223 1.27811
thorax -4.51192 1.15526 1.82432
lowerneck -23.5571 -4.53827 -10.6015
upperneck 10.0253 -3.9457 7.20391
head 7.22072 -1.63698 3.58844
rclavicle -3.27995e-015 -5.56597e-015
rhumerus 20.6376 23.4503 -75.8046
rradius 77.4553
rwrist 14.6368
rhand -9.31074 15.3224
rfingers 7.12502
rthumb 16.6473 -13.9837
lclavicle -3.27995e-015 -5.56597e-015
lhumerus 21.5592 -27.8866 77.9117
lradius 64.1097
lwrist -31.7986
lhand -35.3592 46.5209
lfingers 7.12502
lthumb -8.49142 76.3301
rfemur -67.7199 -20.4909 4.181
rtibia 100.151
rfoot -5.97375 -2.20666
rtoes -1.06165
lfemur -63.5584 20.2628 0.584167
ltibia 95.7453
lfoot -8.18388 -16.6504
ltoes -20.8769
374
root 7.07903 9.52102 -18.0192 -24.6844 -0.541613 1.34707
lowerback 36.4884 2.73984 -2.73235
upperback 12.4485 2.57491 1.18114
thorax -4.48818 1.14322 1.76688
lowerneck -24.0988 -4.60367 -10.5837
upperneck 10.2643 -4.00326 7.29037
head 7.39242 -1.64722 3.60688
rclavicle 2.88238e-014 -1.05356e-014
rhumerus 20.7632 23.3565 -75.8946
rradius 77.4535
rwrist 14.827
rhand -9.4343 15.4408
rfingers 7.12502
rthumb 16.5283 -13.8753
lclavicle 2.88238e-014 -1.05356e-014
lhumerus 21.7717 -27.8982 77.7895
lradius 64.085
lwrist -31.9011
lhand -35.2058 46.6888
lfingers 7.12502
lthumb -8.34339 76.5041
rfemur -67.8103 -20.5572 4.05337
rtibia 100.161
rfoot -5.85079 -2.16037
rtoes -1.55257
lfemur -63.6041 20.2502 0.397075
ltibia 95.7393
lfoot -8.21913 -16.5184
ltoes -21.2075
375
root 7.07938 9.51885 -18.0165 -24.6958 -0.495984 1.59893
lowerback 36.47 2.83791 -3.00207
upperback 12.3383 2.60148 1.13406
thorax -4.60855 1.15321 1.84638
lowerneck -23.548 -4.56331 -10.6412
upperneck 10.0906 -4.00481 7.40936
head 7.25278 -1.64792 3.65728
rclavicle -2.10712e-014 3.57812e-015
rhumerus 20.368 23.3394 -76.0625
rradius 77.4914
rwrist 15.0267
rhand -9.57265 15.648
rfingers 7.12502
rthumb 16.3951 -13.6791
lclavicle -2.10712e-014 3.57812e-015
lhumerus 21.5273 -28.0342 77.9269
lradius 64.0671
lwrist -31.9548
lhand -35.2986 46.8022
lfingers 7.12502
lthumb -8.43292 76.6138
rfemur -67.8646 -20.5934 3.78635
rtibia 100.194
rfoot -5.82878 -2.03824
rtoes -1.80938
lfemur -63.5441 20.2585 0.130198
ltibia 95.7337
lfoot -8.29567 -16.386
ltoes -21.3017
376
root 7.0792 9.52108 -18.0187 -24.7732 -0.571763 1.5221
lowerback 36.4662 2.84278 -2.90915
upperback 12.3883 2.64159 1.16358
thorax -4.55357 1.17291 1.81608
lowerneck -23.4684 -4.56559 -10.6881
upperneck 10.0162 -4.00552 7.44912
head 7.21764 -1.64729 3.67798
rclavicle -1.91827e-014 6.36111e-015
rhumerus 20.3711 23.2479 -76.0787
rradius 77.4831
rwrist 15.1997
rhand -9.38401 15.5812
rfingers 7.12502
rthumb 16.5768 -13.7308
lclavicle -1.91827e-014 6.36111e-015
lhumerus 21.5833 -28.0402 77.8768
lradius 64.0791
lwrist -31.861
lhand -35.5069 46.5816
lfingers 7.12502
lthumb -8.63393 76.385
rfemur -67.7579 -20.4741 3.87228
rtibia 100.147
rfoot -6.00022 -2.14353
rtoes -1.12635
lfemur -63.4271 20.2969 0.285802
ltibia 95.7183
lfoot -8.29174 -16.512
ltoes -21.2405
377
root 7.07955 9.52438 -18.0225 -24.8191 -0.572436 1.43665
lowerback 36.4747 2.80327 -2.80989
upperback 12.4459 2.627 1.17128
thorax -4.49027 1.16703 1.77873
lowerneck -23.5607 -4.55755 -10.6211
upperneck 10.0048 -3.99104 7.36521
head 7.22339 -1.64373 3.64022
rclavicle -1.92821e-014 9.93923e-016
rhumerus 20.5136 23.2268 -76.0812
rradius 77.4525
rwrist 15.1486
rhand -9.1942 15.364
rfingers 7.12502
rthumb 16.7595 -13.9326
lclavicle -1.92821e-014 9.93923e-016
lhumerus 21.6375 -27.9396 77.8583
lradius 64.0881
lwrist -31.846
lhand -35.6035 45.9226
lfingers 7.12502
lthumb -8.72721 75.7222
rfemur -67.6439 -20.441 3.91662
rtibia 100.102
rfoot -6.05544 -2.13855
rtoes -0.94391
lfemur -63.3873 20.2429 0.381358
ltibia 95.6875
lfoot -8.23755 -16.6021
ltoes -21.0775
378
root 7.07978 9.52335 -18.0229 -24.8251 -0.508236 1.49051
lowerback 36.5181 2.7981 -2.84291
upperback 12.4262 2.60637 1.14587
thorax -4.52503 1.15771 1.77492
lowerneck -23.6927 -4.5804 -10.7817
upperneck 10.136 -3.97517 7.4465
head 7.29148 -1.63364 3.69625
rclavicle 1.96797e-014 -8.94531e-015
rhumerus 20.4708 23.2089 -76.123
rradius 77.4402
rwrist 15.1153
rhand -9.16605 15.381
rfingers 7.12502
rthumb 16.7866 -13.9133
lclavicle 1.96797e-014 -8.94531e-015
lhumerus 21.597 -27.8821 77.9863
lradius 64.0243
lwrist -31.9555
lhand -35.523 45.7543
lfingers 7.12502
lthumb -8.6495 75.5571
rfemur -67.6296 -20.5249 3.82035
rtibia 100.125
rfoot -6.01948 -1.96883
rtoes -1.86965
lfemur -63.4079 20.1779 0.285591
ltibia 95.6624
lfoot -8.21847 -16.5672
ltoes -21.0592
379
root 7.07867 9.51759 -18.0201 -24.8486 -0.625346 1.34366
lowerback 36.5519 2.78023 -2.69088
upperback 12.3939 2.63826 1.19939
thorax -4.5721 1.17547 1.73936
lowerneck -23.7327 -4.62588 -11.0633
upperneck 10.2719 -3.97325 7.59652
head 7.35225 -1.63061 3.79376
rclavicle 1.44119e-014 5.76476e-015
rhumerus 20.3609 23.2198 -76.1651
rradius 77.4043
rwrist 15.2341
rhand -9.22699 15.6239
rfingers 7.12502
rthumb 16.7279 -13.6754
lclavicle 1.44119e-014 5.76476e-015
lhumerus 21.5459 -27.8577 78.099
lradius 63.9692
lwrist -31.9478
lhand -35.5353 46.011
lfingers 7.12502
lthumb -8.66142 75.8134
rfemur -67.6579 -20.4834 4.04923
rtibia 100.176
rfoot -6.0602 -1.98972
rtoes -2.86174
lfemur -63.2747 20.2606 0.530793
ltibia 95.5707
lfoot -8.66479 -16.6482
ltoes -23.2732
380
root 7.07751 9.51273 -18.0175 -24.8693 -0.76132 1.26961
lowerback 36.5096 2.76849 -2.64749
upperback 12.4576 2.6405 1.23253
thorax -4.48887 1.1744 1.75334
lowerneck -23.7259 -4.58638 -10.908
upperneck 10.0968 -3.93039 7.40267
head 7.28062 -1.62075 3.70711
rclavicle 2.98177e-015 -1.98785e-016
rhumerus 20.5167 23.3113 -76.1438
rradius 77.3624
rwrist 15.1969
rhand -9.18378 15.7913
rfingers 7.12502
rthumb 16.7695 -13.5045
lclavicle 2.98177e-015 -1.98785e-016
lhumerus 21.7038 -27.7644 78.0229
lradius 63.9269
lwrist -31.8487
lhand -35.6589 45.9664
lfingers 7.12502
lthumb -8.78068 75.7637
rfemur -67.7226 -20.3873 4.19388
rtibia 100.237
rfoot -6.12241 -2.0872
rtoes -2.40119
lfemur -63.1062 20.3704 0.71246
ltibia 95.4837
lfoot -9.16746 -16.6021
ltoes -25.4332
381
root 7.07838 9.51615 -18.0199 -24.8986 -0.768194 1.23616
lowerback 36.5173 2.72756 -2.61662
upperback 12.5164 2.599 1.22772
thorax -4.424 1.15381 1.74793
lowerneck -23.8668 -4.51124 -10.7128
upperneck 10.0428 -3.84704 7.24676
head 7.26908 -1.58462 3.63319
rclavicle -9.54166e-015 1.59028e-015
rhumerus 20.6595 23.3417 -76.1335
rradius 77.3888
rwrist 15.141
rhand -9.04348 15.6753
rfingers 7.12502
rthumb 16.9046 -13.609
lclavicle -9.54166e-015 1.59028e-015
lhumerus 21.87 -27.6852 77.9573
lradius 63.8579
lwrist -31.8632
lhand -35.7205 45.9733
lfingers 7.12502
lthumb -8.84011 75.7682
rfemur -67.6607 -20.3569 4.19112
rtibia 100.209
rfoot -6.19361 -2.23087
rtoes -0.314466
lfemur -63.1921 20.3891 0.721288
ltibia 95.5753
lfoot -8.73593 -16.5393
ltoes -23.5583
382
root 7.07911 9.52156 -18.0252 -24.9316 -0.739658 1.05927
lowerback 36.5905 2.64924 -2.42784
upperback 12.5065 2.56763 1.26536
thorax -4.45499 1.14266 1.69835
lowerneck -24.015 -4.51147 -10.8377
upperneck 10.2115 -3.81538 7.35467
head 7.35067 -1.56313 3.69519
rclavicle -7.95139e-016 9.74045e-015
rhumerus 20.6053 23.3429 -76.1431
rradius 77.4441
rwrist 15.1206
rhand -9.17201 15.578
rfingers 7.12502
rthumb 16.7809 -13.7168
lclavicle -7.95139e-016 9.74045e-015
lhumerus 21.8548 -27.7091 77.9603
lradius 63.8732
lwrist -31.9225
lhand -35.6457 46.1442
lfingers 7.12502
lthumb -8.76789 75.942
rfemur -67.5024 -20.3579 4.33071
rtibia 100.098
rfoot -6.22241 -2.39998
rtoes 0.806858
lfemur -63.3173 20.3351 0.85249
ltibia 95.662
lfoot -8.23973 -16.6285
ltoes -21.3739
383
root 7.0789 9.52399 -18.0277 -24.8858 -0.65492 1.07042
lowerback 36.633 2.63592 -2.43361
upperback 12.4408 2.54762 1.24821
thorax -4.53961 1.13494 1.68797
lowerneck -23.9919 -4.54331 -10.873
upperneck 10.2576 -3.85621 7.38306
head 7.36764 -1.58225 3.70538
rclavicle -1.98785e-015 8.94531e-015
rhumerus 20.4627 23.3368 -76.2233
rradius 77.4719
rwrist 15.2051
rhand -9.42811 15.6071
rfingers 7.12502
rthumb 16.5343 -13.7085
lclavicle -1.98785e-015 8.94531e-015
lhumerus 21.7218 -27.777 77.9624
lradius 63.992
lwrist -32.0012
lhand -35.3715 45.9334
lfingers 7.12502
lthumb -8.50332 75.7422
rfemur -67.5139 -20.4281 4.31756
rtibia 100.054
rfoot -6.11804 -2.39271
rtoes 0.280957
lfemur -63.3821 20.2337 0.778048
ltibia 95.6602
lfoot -8.172 -16.6609
ltoes -21.0332
384
root 7.0783 9.52262 -18.027 -24.8709 -0.680217 1.1248
lowerback 36.6657 2.703 -2.47556
upperback 12.3604 2.61418 1.22675
thorax -4.64152 1.1685 1.66118
lowerneck -23.7882 -4.54977 -10.7444
upperneck 10.222 -3.91123 7.28489
head 7.32405 -1.61616 3.64412
rclavicle 1.18277e-014 6.16232e-015
rhumerus 20.2668 23.3287 -76.2999
rradius 77.4869
rwrist 15.0684
rhand -9.55224 15.3722
rfingers 7.12502
rthumb 16.4148 -13.9533
lclavicle 1.18277e-014 6.16232e-015
lhumerus 21.5294 -27.8638 78.0488
lradius 64.0559
lwrist -31.9998
lhand -35.3745 45.7532
lfingers 7.12502
lthumb -8.50621 75.5618
rfemur -67.5784 -20.4116 4.31811
rtibia 100.077
rfoot -6.00508 -2.36233
rtoes -0.0462592
lfemur -63.3788 20.269 0.745812
ltibia 95.6842
lfoot -8.21049 -16.6446
ltoes -21.2155
385
root 7.0771 9.51756 -18.0251 -24.906 -0.86549 0.932476
lowerback 36.6145 2.7345 -2.29916
upperback 12.3771 2.72257 1.32776
thorax -4.611 1.22152 1.63886
lowerneck -23.6544 -4.55254 -10.8276
upperneck 10.2147 -3.90637 7.30254
head 7.3022 -1.61811 3.66452
rclavicle 3.37934e-015 8.54774e-015
rhumerus 20.1831 23.402 -76.2035
rradius 77.5405
rwrist 14.6542
rhand -9.74088 15.1669
rfingers 7.12502
rthumb 16.2332 -14.1735
lclavicle 3.37934e-015 8.54774e-015
lhumerus 21.474 -27.8719 78.1936
lradius 63.9996
lwrist -31.8791
lhand -35.7111 46.0086
lfingers 7.12502
lthumb -8.83102 75.8038
rfemur -67.5839 -20.2643 4.60153
rtibia 100.094
rfoot -5.98644 -2.40965
rtoes 0.0568446
lfemur -63.3429 20.4584 1.07194
ltibia 95.7383
lfoot -8.2633 -16.793
ltoes -21.2886
386
root 7.07627 9.5139 -18.0232 -24.9321 -0.874212 0.96417
lowerback 36.5474 2.76508 -2.35936
upperback 12.4445 2.74531 1.37378
thorax -4.52012 1.22842 1.71365
lowerneck -23.6816 -4.56557 -11.0151
upperneck 10.2294 -3.87751 7.39543
head 7.31457 -1.60289 3.73015
rclavicle -1.03368e-014 -2.08724e-014
rhumerus 20.2425 23.4375 -76.0826
rradius 77.5845
rwrist 14.6981
rhand -9.834 15.0541
rfingers 7.12502
rthumb 16.1435 -14.2936
lclavicle -1.03368e-014 -2.08724e-014
lhumerus 21.5138 -27.8086 78.3033
lradius 63.9539
lwrist -31.8572
lhand -35.9235 45.9887
lfingers 7.12502
lthumb -9.03594 75.7751
rfemur -67.5774 -20.2593 4.54584
rtibia 100.11
rfoot -5.9639 -2.358
rtoes 0.516614
lfemur -63.3171 20.4903 1.06596
ltibia 95.7758
lfoot -8.30504 -16.8069
ltoes -20.9987
